<?xml version="1.0" encoding="utf-8"?>
<!-- Generator: Adobe Illustrator 16.0.0, SVG Export Plug-In . SVG Version: 6.00 Build 0)  -->
<!DOCTYPE svg PUBLIC "-//W3C//DTD SVG 1.1//EN" "http://www.w3.org/Graphics/SVG/1.1/DTD/svg11.dtd">
<svg version="1.1" id="Layer_1" xmlns="http://www.w3.org/2000/svg" xmlns:xlink="http://www.w3.org/1999/xlink" x="0px" y="0px"
	 width="350" height="350" viewBox="0 0 200 200" enable-background="new 0 0 200 200" xml:space="preserve">
<polygon style="fill: #d1e5e1;" points="81.924,39.651 26.408,101.433 79.533,159.933 78.908,161.808 17.158,101.12 80.658,38.558 "/>
<polygon style="fill: #d1e5e1;" points="118.27,39.651 173.785,101.433 120.66,159.933 121.285,161.808 183.035,101.12 119.535,38.558 "/>
<path style="fill: #d1e5e1;" d="M73.408,147.142c0,0,1-6.583,2.167-8s1.75-1.417,1.75-1.417l46.499-79.25c0,0,1.26-0.97,2.305-0.335
	s0.623,2.021,0.623,2.021l-46.177,79.148c0,0,0.239,0.78-0.573,2.249S73.408,147.142,73.408,147.142z"/>
</svg>
